# xmcd CD database file
# Copyright (C) 1995-1998 Ti Kan
#
# Track frame offsets:
#	150
#	11625
#	22587
#	35567
#	50927
#	60702
#	74117
#	89677
#	100327
#	114325
#	128990
#	147115
#	159327
#	173770
#	183082
#
# Disc length: 2621 seconds
#
# Revision: 1
# Processed by: cddbd v1.4b41PL1 Copyright (c) Steve Scherf et al.
# Submitted via: CDex 1.40Beta1
#
DISCID=cd0a3b0f
DTITLE=Kenny Rogers - Me And Bobby McGee
DYEAR=1900
DGENRE=Country
TTITLE0=Me And Bobby McGee
TTITLE1=Good Time Liberator
TTITLE2=Reuben James
TTITLE3=Good Lady Of Toronto
TTITLE4=Where Does Rosie Go
TTITLE5=I'm Goin To Sing A Sad Song Suzie
TTITLE6=Tulsa Turnaround
TTITLE7=We All Got To Help Each Other
TTITLE8=After All
TTITLE9=Tell It All Brother
TTITLE10=The King Of Oak Street
TTITLE11=Love Woman
TTITLE12=Head The Call
TTITLE13=Camptown Ladies
TTITLE14=Molly
EXTD=ID3G:   2
EXTT0=
EXTT1=
EXTT2=
EXTT3=
EXTT4=
EXTT5=
EXTT6=
EXTT7=
EXTT8=
EXTT9=
EXTT10=
EXTT11=
EXTT12=
EXTT13=
EXTT14=
PLAYORDER=
